<svg xmlns="http://www.w3.org/2000/svg" width="512" height="512" viewBox="0 0 256 256">

<defs><clipPath id="s16b2573e"><path d="M197.219,130.141c-21.4,12.56,13.73,70.6,4.6,90.272-19.729-7.917-49.992,27.9-58.785,32.871-97.165,10.062-97.952-10.792-94.9-13.267,30.784,4.777,54.03-9.034,59.534-13.843s30.4-53.551,30.4-53.551-3.959-29.63-26.155-58.748C79.256,51.3,85.882,49.761,91.447,37.219c3.681-8.3,12.893-37.253,28.846-37.2S218.907,70.5,218.907,70.5,207.533,101.745,197.219,130.141Zm-0.856-56.092c-2.082-9.9-67.846-53.753-73.752-48.163s-20.139,48.705-17,41.08c2.5-6.08,17.9-30.577,24.082-29.747s51.226,34.576,56.753,42.5-4.25,43.913-4.25,43.913S198.444,83.953,196.363,74.049ZM198.988,227.5s2.071,23.038,0,23.448-23.013,2.177-24.082,0-4.249-10.7-4.249-10.7C184.84,223.805,198.988,227.5,198.988,227.5Z" transform="translate(23 23) scale(.82)" fill-rule="evenodd" /></clipPath>
<clipPath id="l16b2573e"><path d="M197.219,130.141c-21.4,12.56,13.73,70.6,4.6,90.272-19.729-7.917-49.992,27.9-58.785,32.871-97.165,10.062-97.952-10.792-94.9-13.267,30.784,4.777,54.03-9.034,59.534-13.843s30.4-53.551,30.4-53.551-3.959-29.63-26.155-58.748C79.256,51.3,85.882,49.761,91.447,37.219c3.681-8.3,12.893-37.253,28.846-37.2S218.907,70.5,218.907,70.5,207.533,101.745,197.219,130.141Zm-0.856-56.092c-2.082-9.9-67.846-53.753-73.752-48.163s-20.139,48.705-17,41.08c2.5-6.08,17.9-30.577,24.082-29.747s51.226,34.576,56.753,42.5-4.25,43.913-4.25,43.913S198.444,83.953,196.363,74.049ZM198.988,227.5s2.071,23.038,0,23.448-23.013,2.177-24.082,0-4.249-10.7-4.249-10.7C184.84,223.805,198.988,227.5,198.988,227.5Z" transform="translate(-5 -7) translate(23 23) scale(.82)" fill-rule="evenodd" /></clipPath>
<linearGradient id="m16b2573e" x1="0" y1="0" x2=".35" y2="1"><stop stop-color="#74f2c2"/><stop offset="1" stop-color="#1fae86"/></linearGradient></defs>
<path d="M197.219,130.141c-21.4,12.56,13.73,70.6,4.6,90.272-19.729-7.917-49.992,27.9-58.785,32.871-97.165,10.062-97.952-10.792-94.9-13.267,30.784,4.777,54.03-9.034,59.534-13.843s30.4-53.551,30.4-53.551-3.959-29.63-26.155-58.748C79.256,51.3,85.882,49.761,91.447,37.219c3.681-8.3,12.893-37.253,28.846-37.2S218.907,70.5,218.907,70.5,207.533,101.745,197.219,130.141Zm-0.856-56.092c-2.082-9.9-67.846-53.753-73.752-48.163s-20.139,48.705-17,41.08c2.5-6.08,17.9-30.577,24.082-29.747s51.226,34.576,56.753,42.5-4.25,43.913-4.25,43.913S198.444,83.953,196.363,74.049ZM198.988,227.5s2.071,23.038,0,23.448-23.013,2.177-24.082,0-4.249-10.7-4.249-10.7C184.84,223.805,198.988,227.5,198.988,227.5Z" transform="translate(3 11) translate(23 23) scale(.82)" fill-rule="evenodd" fill="#1a0f2c" opacity=".5"/>
<path d="M197.219,130.141c-21.4,12.56,13.73,70.6,4.6,90.272-19.729-7.917-49.992,27.9-58.785,32.871-97.165,10.062-97.952-10.792-94.9-13.267,30.784,4.777,54.03-9.034,59.534-13.843s30.4-53.551,30.4-53.551-3.959-29.63-26.155-58.748C79.256,51.3,85.882,49.761,91.447,37.219c3.681-8.3,12.893-37.253,28.846-37.2S218.907,70.5,218.907,70.5,207.533,101.745,197.219,130.141Zm-0.856-56.092c-2.082-9.9-67.846-53.753-73.752-48.163s-20.139,48.705-17,41.08c2.5-6.08,17.9-30.577,24.082-29.747s51.226,34.576,56.753,42.5-4.25,43.913-4.25,43.913S198.444,83.953,196.363,74.049ZM198.988,227.5s2.071,23.038,0,23.448-23.013,2.177-24.082,0-4.249-10.7-4.249-10.7C184.84,223.805,198.988,227.5,198.988,227.5Z" transform="translate(23 23) scale(.82)" fill-rule="evenodd" fill="#1a0f2c" stroke="#1a0f2c" stroke-width="22.0" stroke-linejoin="round"/>
<g clip-path="url(#s16b2573e)"><rect width="256" height="256" fill="#0d5658"/>
<g clip-path="url(#l16b2573e)"><rect width="256" height="256" fill="#e6fff3"/>
<path d="M197.219,130.141c-21.4,12.56,13.73,70.6,4.6,90.272-19.729-7.917-49.992,27.9-58.785,32.871-97.165,10.062-97.952-10.792-94.9-13.267,30.784,4.777,54.03-9.034,59.534-13.843s30.4-53.551,30.4-53.551-3.959-29.63-26.155-58.748C79.256,51.3,85.882,49.761,91.447,37.219c3.681-8.3,12.893-37.253,28.846-37.2S218.907,70.5,218.907,70.5,207.533,101.745,197.219,130.141Zm-0.856-56.092c-2.082-9.9-67.846-53.753-73.752-48.163s-20.139,48.705-17,41.08c2.5-6.08,17.9-30.577,24.082-29.747s51.226,34.576,56.753,42.5-4.25,43.913-4.25,43.913S198.444,83.953,196.363,74.049ZM198.988,227.5s2.071,23.038,0,23.448-23.013,2.177-24.082,0-4.249-10.7-4.249-10.7C184.84,223.805,198.988,227.5,198.988,227.5Z" transform="translate(3 4) translate(23 23) scale(.82)" fill-rule="evenodd" fill="url(#m16b2573e)"/>
</g>
<ellipse cx="86" cy="62" rx="78" ry="30" fill="#ffffff" opacity=".2" transform="rotate(-28 86 62)"/>
</g>
<path d="M197.219,130.141c-21.4,12.56,13.73,70.6,4.6,90.272-19.729-7.917-49.992,27.9-58.785,32.871-97.165,10.062-97.952-10.792-94.9-13.267,30.784,4.777,54.03-9.034,59.534-13.843s30.4-53.551,30.4-53.551-3.959-29.63-26.155-58.748C79.256,51.3,85.882,49.761,91.447,37.219c3.681-8.3,12.893-37.253,28.846-37.2S218.907,70.5,218.907,70.5,207.533,101.745,197.219,130.141Zm-0.856-56.092c-2.082-9.9-67.846-53.753-73.752-48.163s-20.139,48.705-17,41.08c2.5-6.08,17.9-30.577,24.082-29.747s51.226,34.576,56.753,42.5-4.25,43.913-4.25,43.913S198.444,83.953,196.363,74.049ZM198.988,227.5s2.071,23.038,0,23.448-23.013,2.177-24.082,0-4.249-10.7-4.249-10.7C184.84,223.805,198.988,227.5,198.988,227.5Z" transform="translate(23 23) scale(.82)" fill-rule="evenodd" fill="none" stroke="#ffffff" stroke-opacity=".16" stroke-width="2.4" stroke-linejoin="round"/>
<path d="M74 49l5 10 10 5-10 5-5 10-5-10-10-5 10-5z" fill="#ffffff"/>
</svg>