<svg xmlns="http://www.w3.org/2000/svg" width="512" height="512" viewBox="0 0 256 256">
<title>pas leger</title>
<desc>Silhouette Wenrexa Winter, banque tools/sources_svg ; habillage Alambik (tools/style_icone_jeu.py).</desc>
<defs>
<linearGradient id="metal" x1="0" y1="0" x2="1" y2="1"><stop stop-color="#fff5dc"/><stop offset=".48" stop-color="#e5c695"/><stop offset="1" stop-color="#a08077"/></linearGradient>
</defs>
<defs><clipPath id="sf9287152"><path d="M86.82,131.737s25.318-31.095-5.414-44.666S19.1,96.245,27.579,132.545c6.777,29.012,47.053,49.277,47.06,49.272S11.805,171.347,2.9,131.737s6.825-77.553,50.08-74.443,69.852,26.723,59.555,46.02S89.275,130.373,86.82,131.737Zm169.189,23.01s-44.248-54.13-73.09-48.727S124.2,166.651,94.941,157.454,54.89,126.617,61.1,118.2s12.693-1.407,12.182,0-3.261-17.9-20.3-9.475-9.108,31.063-2.707,39.252,35.56,29.539,55.494,29.777,57.278-34.5,69.029-40.6C192.82,127.793,220.268,132.1,256.009,154.747Zm-4.061,20.3s-29.229-20.9-44.666-21.656-41.9,29.2-56.847,36.545c-17.869,8.782-49.692,16.474-73.09,6.767C60.383,189.668,40.8,185.877,40.8,185.877s23.754,34.974,62.262,35.192c39.294,0.221,76.265-33.534,86.625-39.252C205.488,173.1,233.4,168.228,251.948,175.049Z" transform="translate(23 23) scale(.82)" fill-rule="evenodd" /></clipPath>
<clipPath id="lf9287152"><path d="M86.82,131.737s25.318-31.095-5.414-44.666S19.1,96.245,27.579,132.545c6.777,29.012,47.053,49.277,47.06,49.272S11.805,171.347,2.9,131.737s6.825-77.553,50.08-74.443,69.852,26.723,59.555,46.02S89.275,130.373,86.82,131.737Zm169.189,23.01s-44.248-54.13-73.09-48.727S124.2,166.651,94.941,157.454,54.89,126.617,61.1,118.2s12.693-1.407,12.182,0-3.261-17.9-20.3-9.475-9.108,31.063-2.707,39.252,35.56,29.539,55.494,29.777,57.278-34.5,69.029-40.6C192.82,127.793,220.268,132.1,256.009,154.747Zm-4.061,20.3s-29.229-20.9-44.666-21.656-41.9,29.2-56.847,36.545c-17.869,8.782-49.692,16.474-73.09,6.767C60.383,189.668,40.8,185.877,40.8,185.877s23.754,34.974,62.262,35.192c39.294,0.221,76.265-33.534,86.625-39.252C205.488,173.1,233.4,168.228,251.948,175.049Z" transform="translate(-5 -7) translate(23 23) scale(.82)" fill-rule="evenodd" /></clipPath>
<linearGradient id="mf9287152" x1="0" y1="0" x2=".35" y2="1"><stop stop-color="#cfa6ff"/><stop offset="1" stop-color="#8650ee"/></linearGradient></defs>
<path d="M86.82,131.737s25.318-31.095-5.414-44.666S19.1,96.245,27.579,132.545c6.777,29.012,47.053,49.277,47.06,49.272S11.805,171.347,2.9,131.737s6.825-77.553,50.08-74.443,69.852,26.723,59.555,46.02S89.275,130.373,86.82,131.737Zm169.189,23.01s-44.248-54.13-73.09-48.727S124.2,166.651,94.941,157.454,54.89,126.617,61.1,118.2s12.693-1.407,12.182,0-3.261-17.9-20.3-9.475-9.108,31.063-2.707,39.252,35.56,29.539,55.494,29.777,57.278-34.5,69.029-40.6C192.82,127.793,220.268,132.1,256.009,154.747Zm-4.061,20.3s-29.229-20.9-44.666-21.656-41.9,29.2-56.847,36.545c-17.869,8.782-49.692,16.474-73.09,6.767C60.383,189.668,40.8,185.877,40.8,185.877s23.754,34.974,62.262,35.192c39.294,0.221,76.265-33.534,86.625-39.252C205.488,173.1,233.4,168.228,251.948,175.049Z" transform="translate(3 11) translate(23 23) scale(.82)" fill-rule="evenodd" fill="#1a0f2c" opacity=".5"/>
<path d="M86.82,131.737s25.318-31.095-5.414-44.666S19.1,96.245,27.579,132.545c6.777,29.012,47.053,49.277,47.06,49.272S11.805,171.347,2.9,131.737s6.825-77.553,50.08-74.443,69.852,26.723,59.555,46.02S89.275,130.373,86.82,131.737Zm169.189,23.01s-44.248-54.13-73.09-48.727S124.2,166.651,94.941,157.454,54.89,126.617,61.1,118.2s12.693-1.407,12.182,0-3.261-17.9-20.3-9.475-9.108,31.063-2.707,39.252,35.56,29.539,55.494,29.777,57.278-34.5,69.029-40.6C192.82,127.793,220.268,132.1,256.009,154.747Zm-4.061,20.3s-29.229-20.9-44.666-21.656-41.9,29.2-56.847,36.545c-17.869,8.782-49.692,16.474-73.09,6.767C60.383,189.668,40.8,185.877,40.8,185.877s23.754,34.974,62.262,35.192c39.294,0.221,76.265-33.534,86.625-39.252C205.488,173.1,233.4,168.228,251.948,175.049Z" transform="translate(23 23) scale(.82)" fill-rule="evenodd" fill="#1a0f2c" stroke="#1a0f2c" stroke-width="22.0" stroke-linejoin="round"/>
<g clip-path="url(#sf9287152)"><rect width="256" height="256" fill="#43208e"/>
<g clip-path="url(#lf9287152)"><rect width="256" height="256" fill="#f7e9ff"/>
<path d="M86.82,131.737s25.318-31.095-5.414-44.666S19.1,96.245,27.579,132.545c6.777,29.012,47.053,49.277,47.06,49.272S11.805,171.347,2.9,131.737s6.825-77.553,50.08-74.443,69.852,26.723,59.555,46.02S89.275,130.373,86.82,131.737Zm169.189,23.01s-44.248-54.13-73.09-48.727S124.2,166.651,94.941,157.454,54.89,126.617,61.1,118.2s12.693-1.407,12.182,0-3.261-17.9-20.3-9.475-9.108,31.063-2.707,39.252,35.56,29.539,55.494,29.777,57.278-34.5,69.029-40.6C192.82,127.793,220.268,132.1,256.009,154.747Zm-4.061,20.3s-29.229-20.9-44.666-21.656-41.9,29.2-56.847,36.545c-17.869,8.782-49.692,16.474-73.09,6.767C60.383,189.668,40.8,185.877,40.8,185.877s23.754,34.974,62.262,35.192c39.294,0.221,76.265-33.534,86.625-39.252C205.488,173.1,233.4,168.228,251.948,175.049Z" transform="translate(3 4) translate(23 23) scale(.82)" fill-rule="evenodd" fill="url(#mf9287152)"/>
</g>
<ellipse cx="86" cy="62" rx="78" ry="30" fill="#ffffff" opacity=".2" transform="rotate(-28 86 62)"/>
</g>
<path d="M86.82,131.737s25.318-31.095-5.414-44.666S19.1,96.245,27.579,132.545c6.777,29.012,47.053,49.277,47.06,49.272S11.805,171.347,2.9,131.737s6.825-77.553,50.08-74.443,69.852,26.723,59.555,46.02S89.275,130.373,86.82,131.737Zm169.189,23.01s-44.248-54.13-73.09-48.727S124.2,166.651,94.941,157.454,54.89,126.617,61.1,118.2s12.693-1.407,12.182,0-3.261-17.9-20.3-9.475-9.108,31.063-2.707,39.252,35.56,29.539,55.494,29.777,57.278-34.5,69.029-40.6C192.82,127.793,220.268,132.1,256.009,154.747Zm-4.061,20.3s-29.229-20.9-44.666-21.656-41.9,29.2-56.847,36.545c-17.869,8.782-49.692,16.474-73.09,6.767C60.383,189.668,40.8,185.877,40.8,185.877s23.754,34.974,62.262,35.192c39.294,0.221,76.265-33.534,86.625-39.252C205.488,173.1,233.4,168.228,251.948,175.049Z" transform="translate(23 23) scale(.82)" fill-rule="evenodd" fill="none" stroke="#ffffff" stroke-opacity=".16" stroke-width="2.4" stroke-linejoin="round"/>
<path d="M74 49l5 10 10 5-10 5-5 10-5-10-10-5 10-5z" fill="#ffffff"/>

</svg>
