<svg xmlns="http://www.w3.org/2000/svg" width="256" height="256" viewBox="0 0 128 128">
<defs>
 <linearGradient id="metal" x1=".1" y1="0" x2=".85" y2="1"><stop stop-color="#f6e9ff"/><stop offset=".25" stop-color="#c5acd9"/><stop offset=".58" stop-color="#746baf"/><stop offset=".82" stop-color="#8b9ac7"/><stop offset="1" stop-color="#e5d2ef"/></linearGradient>
 <radialGradient id="face" cx=".32" cy=".16" r=".86"><stop stop-color="#625984"/><stop offset=".55" stop-color="#38365d"/><stop offset="1" stop-color="#1c294d"/></radialGradient>
 <linearGradient id="arc" x1="0" y1="0" x2="1" y2="1"><stop stop-color="#c9b5ee"/><stop offset=".55" stop-color="#94dfe8"/><stop offset="1" stop-color="#687fb8"/></linearGradient>
</defs>
<circle cx="64" cy="67" r="60" fill="#0d1731" opacity=".47"/>
<circle cx="64" cy="62" r="59" fill="url(#metal)" stroke="#5a597f" stroke-width="1.2"/>
<circle cx="64" cy="62" r="53" fill="#292950" stroke="#e0cdec" stroke-opacity=".65" stroke-width="1.4"/>
<circle cx="64" cy="62" r="48" fill="url(#face)" stroke="#6b6a9c" stroke-width="1"/>
<path d="M26 42A43 43 0 0 1 96 32M103 71A42 42 0 0 1 34 91" fill="none" stroke="url(#arc)" stroke-width="2.8" stroke-linecap="round"/>
<path d="M29 79A36 36 0 0 0 48 96M79 27A36 36 0 0 1 97 47" fill="none" stroke="#e9d6ff" stroke-opacity=".51" stroke-width="1.5" stroke-linecap="round"/>
<path d="M64 8 69 17 64 25 59 17ZM112 62l-9 5-7-5 7-5ZM64 99l5 9-5 8-5-8ZM16 62l9-5 7 5-7 5Z" fill="#9bdce6" stroke="#716899" stroke-width="1.1"/>
<path d="M44 17Q64 9 85 18M41 108Q64 116 88 105" fill="none" stroke="#fff7ef" stroke-opacity=".62" stroke-width="1.8" stroke-linecap="round"/>
<circle cx="64" cy="62" r="42" fill="none" stroke="#b5a8dc" stroke-opacity=".36" stroke-width="1"/>
</svg>
